<svg width="603" height="136" viewBox="0 0 603 136" fill="none" xmlns="http://www.w3.org/2000/svg">
<path d="M1809 135.798V32.7984C1779.02 -17.1389 1768.5 4.79835 1662.5 4.79835C1552.57 4.79835 1496 57.7984 1397.5 57.7984C1325.94 57.7984 1277.71 28.9797 1206.25 32.7984C1142.46 36.2072 1223 55.1095 1043.5 49.2984C960.166 46.6005 980.378 135.798 828.5 49.2984C707 -19.9002 689.156 29.4975 603.5 32.7984C533.672 35.4893 490.591 46.8185 425 45.2984C298.408 42.3647 228.767 10.7984 112 10.7984C41 10.7984 61.5 32.7984 0 32.7984V135.798H1809Z" fill="#D9D9D9"/>
</svg>
